<svg xmlns="http://www.w3.org/2000/svg" viewBox="0 0 64 64" width="64" height="64"><g stroke-linejoin="round" stroke-linecap="round"><g transform="rotate(-12 21 25)"><rect x="18.4" y="21" width="5.2" height="15" rx="2.6" fill="#775029" stroke="#775029" stroke-width="2.4"/></g><g transform="rotate(12 43 25)"><rect x="40.4" y="21" width="5.2" height="15" rx="2.6" fill="#775029" stroke="#775029" stroke-width="2.4"/></g><g transform="rotate(-8 21 43)"><rect x="18.4" y="39" width="5.2" height="15" rx="2.6" fill="#775029" stroke="#775029" stroke-width="2.4"/></g><g transform="rotate(8 43 43)"><rect x="40.4" y="39" width="5.2" height="15" rx="2.6" fill="#775029" stroke="#775029" stroke-width="2.4"/></g><path d="M31 52 q-1 8 -4 10 q6 1 8 -9 z" fill="#775029" stroke="#775029" stroke-width="1.6"/><rect x="23" y="22" width="18" height="32" rx="9" fill="#a6713b" stroke="#775029" stroke-width="2.4"/><path d="M26 26 q6 -3 12 0 q0 22 -12 22 z" fill="#ffffff" opacity="0.13"/><path d="M27 26 q5 -10 10 0 q-5 4 -10 0 z" fill="#a6713b" stroke="#775029" stroke-width="2.0"/><path d="M28.5 22 q3.5 -8 7 0 q-3.5 3 -7 0 z" fill="#775029" opacity="1.0"/><path d="M25 7 l3 -6 l3.5 6 z" fill="#a6713b" stroke="#775029" stroke-width="1.8"/><path d="M39 7 l-3 -6 l-3.5 6 z" fill="#a6713b" stroke="#775029" stroke-width="1.8"/><rect x="25.5" y="6" width="13" height="18" rx="6.5" fill="#a6713b" stroke="#775029" stroke-width="2.4"/><ellipse cx="32" cy="20" rx="5" ry="4.5" fill="#e0d1ae" stroke="#775029" stroke-width="1.8"/><circle cx="28.5" cy="12" r="1.7" fill="#775029"/><circle cx="35.5" cy="12" r="1.7" fill="#775029"/></g></svg>